{
  "accessors": [
    {
      "bufferView": 2,
      "componentType": 5126,
      "count": 55252,
      "max": [
        13.688203811645508,
        25.15691566467285,
        10.590852737426758
      ],
      "min": [
        -7.922600746154785,
        0.2806019186973572,
        -10.857405662536621
      ],
      "type": "VEC3"
    },
    {
      "bufferView": 2,
      "byteOffset": 663024,
      "componentType": 5126,
      "count": 55252,
      "max": [
        0.9999909400939941,
        0.999988317489624,
        0.9999946355819702
      ],
      "min": [
        -0.9999555349349976,
        -0.9999988079071045,
        -0.9999945163726807
      ],
      "type": "VEC3"
    },
    {
      "bufferView": 3,
      "componentType": 5126,
      "count": 55252,
      "max": [
        0.9872979521751404,
        0.9999997615814209,
        0.9999991655349731,
        1.0
      ],
      "min": [
        -0.9921074509620667,
        -0.9999997615814209,
        -1.0,
        -1.0
      ],
      "type": "VEC4"
    },
    {
      "bufferView": 1,
      "componentType": 5126,
      "count": 55252,
      "max": [
        0.9995419979095459,
        0.9987789988517761
      ],
      "min": [
        0.00024399999529123306,
        0.00024500000290572643
      ],
      "type": "VEC2"
    },
    {
      "bufferView": 1,
      "byteOffset": 442016,
      "componentType": 5126,
      "count": 55252,
      "max": [
        0.9995419979095459,
        0.9987789988517761
      ],
      "min": [
        0.00024399999529123306,
        0.00024500000290572643
      ],
      "type": "VEC2"
    },
    {
      "bufferView": 1,
      "byteOffset": 884032,
      "componentType": 5126,
      "count": 55252,
      "max": [
        0.9995419979095459,
        0.9987789988517761
      ],
      "min": [
        0.00024399999529123306,
        0.00024500000290572643
      ],
      "type": "VEC2"
    },
    {
      "bufferView": 0,
      "componentType": 5125,
      "count": 299982,
      "type": "SCALAR"
    }
  ],
  "asset": {
    "extras": {
      "author": "Eydeet (https://sketchfab.com/eydeet)",
      "license": "CC-BY-4.0 (http://creativecommons.org/licenses/by/4.0/)",
      "source": "https://sketchfab.com/3d-models/apple-790093f476a04e49a6873e820bca04c5",
      "title": "Apple"
    },
    "generator": "Sketchfab-13.42.0",
    "version": "2.0"
  },
  "bufferViews": [
    {
      "buffer": 0,
      "byteLength": 1199928,
      "name": "floatBufferViews",
      "target": 34963
    },
    {
      "buffer": 0,
      "byteLength": 1326048,
      "byteOffset": 1199928,
      "byteStride": 8,
      "name": "floatBufferViews",
      "target": 34962
    },
    {
      "buffer": 0,
      "byteLength": 1326048,
      "byteOffset": 2525976,
      "byteStride": 12,
      "name": "floatBufferViews",
      "target": 34962
    },
    {
      "buffer": 0,
      "byteLength": 884032,
      "byteOffset": 3852024,
      "byteStride": 16,
      "name": "floatBufferViews",
      "target": 34962
    }
  ],
  "buffers": [
    {
      "byteLength": 4736056,
      "uri": "scene.bin"
    }
  ],
  "images": [
    {
      "uri": "textures/apple_u1_v1_baseColor.png"
    },
    {
      "uri": "textures/apple_u1_v1_metallicRoughness.png"
    },
    {
      "uri": "textures/apple_u1_v1_normal.png"
    }
  ],
  "materials": [
    {
      "doubleSided": true,
      "name": "apple_u1_v1",
      "normalTexture": {
        "index": 2
      },
      "pbrMetallicRoughness": {
        "baseColorTexture": {
          "index": 0
        },
        "metallicFactor": 0.0,
        "metallicRoughnessTexture": {
          "index": 1
        },
        "roughnessFactor": 0.85
      }
    }
  ],
  "meshes": [
    {
      "name": "apple_apple_u1_v1_0",
      "primitives": [
        {
          "attributes": {
            "NORMAL": 1,
            "POSITION": 0,
            "TANGENT": 2,
            "TEXCOORD_0": 3,
            "TEXCOORD_1": 4,
            "TEXCOORD_2": 5
          },
          "indices": 6,
          "material": 0,
          "mode": 4
        }
      ]
    }
  ],
  "nodes": [
    {
      "children": [
        1
      ],
      "matrix": [
        1.0,
        0.0,
        0.0,
        0.0,
        0.0,
        2.220446049250313e-16,
        -1.0,
        0.0,
        0.0,
        1.0,
        2.220446049250313e-16,
        0.0,
        0.0,
        0.0,
        0.0,
        1.0
      ],
      "name": "Sketchfab_model"
    },
    {
      "children": [
        2
      ],
      "matrix": [
        0.009999999776482582,
        0.0,
        0.0,
        0.0,
        0.0,
        0.0,
        0.009999999776482582,
        0.0,
        0.0,
        -0.009999999776482582,
        0.0,
        0.0,
        0.0,
        0.0,
        0.0,
        1.0
      ],
      "name": "2508325900144ad4bdf9b8c80ff38272.fbx"
    },
    {
      "children": [
        3
      ],
      "name": "RootNode"
    },
    {
      "children": [
        4
      ],
      "matrix": [
        100.0,
        0.0,
        0.0,
        0.0,
        0.0,
        99.99999999999866,
        1.6292067073209114e-05,
        0.0,
        0.0,
        -1.6292067073209114e-05,
        99.99999999999866,
        0.0,
        0.0,
        0.0,
        0.0,
        1.0
      ],
      "name": "apple"
    },
    {
      "mesh": 0,
      "name": "apple_apple_u1_v1_0"
    }
  ],
  "samplers": [
    {
      "magFilter": 9729,
      "minFilter": 9987,
      "wrapS": 10497,
      "wrapT": 10497
    }
  ],
  "scene": 0,
  "scenes": [
    {
      "name": "Sketchfab_Scene",
      "nodes": [
        0
      ]
    }
  ],
  "textures": [
    {
      "sampler": 0,
      "source": 0
    },
    {
      "sampler": 0,
      "source": 1
    },
    {
      "sampler": 0,
      "source": 2
    }
  ]
}
